<svg xmlns="http://www.w3.org/2000/svg" width="50" height="50" fill="none" viewBox="0 0 50 50"><mask id="mask0_1479_21424" style="mask-type:alpha" width="50" height="50" x="0" y="0" maskUnits="userSpaceOnUse"><path fill="#000" d="M25 50C38.8071 50 50 38.8071 50 25C50 11.1929 38.8071 0 25 0C11.1929 0 0 11.1929 0 25C0 38.8071 11.1929 50 25 50Z"/></mask><g mask="url(#mask0_1479_21424)"><path fill="#192333" d="M25 50C38.8071 50 50 38.8071 50 25C50 11.1929 38.8071 0 25 0C11.1929 0 0 11.1929 0 25C0 38.8071 11.1929 50 25 50Z"/><path fill="url(#paint0_linear_1479_21424)" d="M41.53 43.7556L19.2061 15H15V34.9917H18.3649V19.2732L38.8886 45.7903C39.8147 45.1706 40.6969 44.4903 41.53 43.7556Z"/><path fill="url(#paint1_linear_1479_21424)" d="M35.2786 15H31.9453V35H35.2786V15Z"/></g><defs><linearGradient id="paint0_linear_1479_21424" x1="30.278" x2="40.139" y1="32.361" y2="44.583" gradientUnits="userSpaceOnUse"><stop stop-color="#fff"/><stop offset="1" stop-color="#fff" stop-opacity="0"/></linearGradient><linearGradient id="paint1_linear_1479_21424" x1="33.612" x2="33.556" y1="15" y2="29.688" gradientUnits="userSpaceOnUse"><stop stop-color="#fff"/><stop offset="1" stop-color="#fff" stop-opacity="0"/></linearGradient></defs></svg>